<svg width="66" height="65" viewBox="0 0 66 65" fill="none" xmlns="http://www.w3.org/2000/svg">
<path d="M2.50397 63.1285C2.50397 64.2313 3.35225 65.0795 4.45502 64.9947L63.3263 64.3161C64.429 64.3161 65.2773 63.4678 65.1925 62.365C65.1925 61.2622 64.3442 60.414 63.2415 60.4988L4.37021 61.1774C3.35227 61.1774 2.50397 62.1106 2.50397 63.1285Z" fill="#798EE4"/>
<path d="M27.4437 56.851L36.3507 56.6814C38.2169 56.6814 39.659 54.8151 39.659 52.6096L39.4045 18.9325C39.4045 17.6601 38.9804 16.5573 38.1321 15.7939C37.5383 15.2 36.7748 14.8607 36.0113 14.9456L27.1892 15.1152C25.3229 15.1152 23.8808 16.9815 23.8808 19.187L24.1353 52.8641C24.1353 54.1365 24.5594 55.2393 25.4077 56.0027C25.9167 56.5117 26.6802 56.851 27.4437 56.851ZM27.1043 17.9146L36.0113 17.745C36.0962 17.745 36.5203 18.1691 36.5203 18.9325L36.7748 52.6096C36.7748 53.4579 36.3506 53.882 36.2658 53.882L27.4437 54.0517C27.3588 54.0517 26.9346 53.6275 26.9346 52.8641L26.6802 19.187C26.5953 18.3387 27.0195 17.9146 27.1043 17.9146Z" fill="#798EE4"/>
<path d="M50.6867 56.7663C50.7716 56.7663 50.7716 56.7663 50.6867 56.7663L59.5938 56.5966C61.46 56.5966 62.9021 54.3911 62.8173 51.5069L62.5628 5.44483C62.5628 3.74826 61.969 2.13649 61.1207 1.2882C60.5269 0.779226 59.9331 0.524719 59.1696 0.524719L50.3474 0.694387C48.4812 0.694387 47.0391 2.89994 47.0391 5.78412L47.2936 51.8462C47.2936 53.5428 47.8874 55.1545 48.7357 56.0028C49.4143 56.427 50.0081 56.7663 50.6867 56.7663ZM50.5171 3.49373L59.1696 3.32411C59.3393 3.49377 59.7634 4.25721 59.7634 5.52964L60.0179 51.5917C60.0179 52.8641 59.5938 53.6276 59.4241 53.8821L50.7716 54.0518C50.6019 53.8821 50.1778 53.1186 50.1778 51.8462L49.9233 5.78412C49.9233 4.42686 50.3474 3.66339 50.5171 3.49373Z" fill="#798EE4"/>
<path d="M14.8042 26.7368C14.2104 26.143 13.4469 25.8037 12.6834 25.8885L3.86126 26.0582C1.99503 26.0582 0.552917 27.9244 0.552917 30.1299L0.722586 53.0337C0.722586 54.2213 1.14673 55.4089 1.99502 56.1724C2.58882 56.7662 3.35228 57.0207 4.11574 57.0207C4.11574 57.0207 4.11572 57.0207 4.20055 57.0207L13.1076 56.851C14.9738 56.851 16.4159 54.9848 16.4159 52.7792L16.2463 29.8755C16.0766 28.603 15.5676 27.5002 14.8042 26.7368ZM12.9379 54.0517L4.11574 54.2213C4.03091 54.2213 3.60674 53.7972 3.60674 53.0337L3.43712 30.1299C3.43712 29.2816 3.86124 28.8575 3.94607 28.8575L12.7683 28.6878C12.8531 28.6878 13.2772 29.112 13.2772 29.8755L13.4469 52.7792C13.4469 53.6275 13.0227 54.0517 12.9379 54.0517Z" fill="#798EE4"/>
</svg>
