<svg width="44" height="44" viewBox="0 0 44 44" fill="none" xmlns="http://www.w3.org/2000/svg">
<path d="M40.2797 34.6446H39.5501V23.5349C39.5501 22.2193 38.4556 21.123 37.1422 21.123H34.1507C32.8374 21.123 31.7429 22.2193 31.7429 23.5349V26.9702C31.7429 28.7243 30.3566 30.113 28.6055 30.113H24.5195V29.3821H28.6055C29.9188 29.3821 31.0133 28.2858 31.0133 26.9702V23.5349C31.0133 21.7808 32.3996 20.3921 34.1507 20.3921H37.1422C38.8934 20.3921 40.2797 21.8539 40.2797 23.5349V34.6446Z" fill="#29AAE3"/>
<path d="M39.7689 43.9268H38.2367C36.7774 43.9268 35.61 42.7574 35.61 41.2956V34.0597C35.61 32.4517 36.9233 31.2092 38.4556 31.2092H39.7689V43.9268Z" fill="#29AAE3"/>
<path d="M41.1553 31.1363H39.8419V36.3987H43.9279V41.2227C43.9279 42.6845 42.7605 43.8539 41.3012 43.8539H41.3742C42.8334 43.8539 44.0008 42.6845 44.0008 41.2227V33.9868C44.0738 32.4519 42.7605 31.1363 41.1553 31.1363Z" fill="#0088B7"/>
<path d="M35.61 36.3986V41.2225C35.61 42.6843 36.7774 43.8538 38.2367 43.8538H39.9149V36.3986H35.61Z" fill="#3AC0EF"/>
<path d="M43.9279 41.2957V36.4718H39.8419V43.9269H41.3012C42.7605 43.9269 43.9279 42.7575 43.9279 41.2957Z" fill="#29AAE3"/>
<path d="M40.2797 31.1363H39.55V36.3987H40.2797V31.1363Z" fill="#004D68"/>
<path d="M11.8967 19.6611H9.70776C8.83219 19.6611 8.17554 18.9302 8.17554 18.1263V13.3023C8.17554 12.4253 8.90516 11.7675 9.70776 11.7675H11.8967C12.7722 11.7675 13.4289 12.4984 13.4289 13.3023V18.1263C13.5019 19.0033 12.7722 19.6611 11.8967 19.6611Z" fill="#196C91"/>
<path d="M17.8067 19.6611H3.87067L5.54884 19.0764C8.97814 17.9801 12.6263 17.9801 16.0556 19.0764L17.8067 19.6611Z" fill="#29AAE3"/>
<path d="M10.8023 15.7874C15.1543 15.7874 18.6823 12.2532 18.6823 7.89367C18.6823 3.53411 15.1543 0 10.8023 0C6.4502 0 2.92218 3.53411 2.92218 7.89367C2.92218 12.2532 6.4502 15.7874 10.8023 15.7874Z" fill="#29AAE3"/>
<path d="M10.8023 12.4983C13.341 12.4983 15.399 10.4367 15.399 7.89364C15.399 5.35056 13.341 3.289 10.8023 3.289C8.26358 3.289 6.20557 5.35056 6.20557 7.89364C6.20557 10.4367 8.26358 12.4983 10.8023 12.4983Z" fill="#BCFAFF"/>
<path d="M10.8022 12.8637C8.10256 12.8637 5.8407 10.671 5.8407 7.89361C5.8407 5.18929 8.0296 2.92352 10.8022 2.92352C13.5019 2.92352 15.7638 5.1162 15.7638 7.89361C15.7638 10.5979 13.5748 12.8637 10.8022 12.8637ZM10.8022 3.65442C8.46738 3.65442 6.57034 5.55474 6.57034 7.89361C6.57034 10.2325 8.46738 12.1328 10.8022 12.1328C13.1371 12.1328 15.0341 10.2325 15.0341 7.89361C15.0341 5.55474 13.1371 3.65442 10.8022 3.65442Z" fill="#004D68"/>
<path d="M8.54036 8.25906C8.32146 8.25906 8.17554 8.11288 8.17554 7.89361C8.17554 6.43182 9.34294 5.26239 10.8022 5.26239C11.0211 5.26239 11.167 5.40857 11.167 5.62784C11.167 5.84711 11.0211 5.99329 10.8022 5.99329C9.70776 5.99329 8.90517 6.87036 8.90517 7.89361C8.90517 8.11288 8.75925 8.25906 8.54036 8.25906Z" fill="white"/>
<path d="M23.5709 26.0199H2.70334C1.53592 26.0199 0.660339 25.0698 0.660339 23.9734V22.7309C0.660339 21.5615 1.60888 20.6844 2.70334 20.6844H23.5709C24.7384 20.6844 25.6139 21.6346 25.6139 22.7309V23.9734C25.6139 25.0698 24.6654 26.0199 23.5709 26.0199Z" fill="#D07100"/>
<path d="M3.21406 19.588C1.46293 19.588 0.00366211 21.0498 0.00366211 22.804V23.9003C0.00366211 25.6545 1.46293 27.1162 3.21406 27.1162H28.3865V26.093H3.21406C2.04664 26.093 1.09812 25.1428 1.09812 23.9734V22.877C1.09812 21.7076 2.04664 20.7575 3.21406 20.7575H28.3865V19.7342H3.21406V19.588Z" fill="#FBB242"/>
<path d="M25.395 26.0199H2.99518C2.26555 26.0199 1.68182 25.4352 1.68182 24.7043V21.9269C1.68182 21.196 2.26555 20.6113 2.99518 20.6113H25.395C26.1247 20.6113 26.7084 21.196 26.7084 21.9269V24.7043C26.7084 25.3621 26.1247 26.0199 25.395 26.0199Z" fill="#E0E0E0"/>
<path d="M23.5709 33.2558H2.70334C1.53592 33.2558 0.660339 32.3056 0.660339 31.2093V29.9667C0.660339 28.7973 1.60888 27.9202 2.70334 27.9202H23.5709C24.7384 27.9202 25.6139 28.8704 25.6139 29.9667V31.2093C25.6139 32.3787 24.6654 33.2558 23.5709 33.2558Z" fill="#D07100"/>
<path d="M3.21406 26.824C1.46293 26.824 0.00366211 28.2858 0.00366211 30.0399V31.1363C0.00366211 32.8904 1.46293 34.3522 3.21406 34.3522H28.3865V33.3289H3.21406C2.04664 33.3289 1.09812 32.3788 1.09812 31.2094V30.113C1.09812 28.9436 2.04664 27.9934 3.21406 27.9934H28.3865V26.9702H3.21406V26.824Z" fill="#004D68"/>
<path d="M25.395 33.2559H2.99518C2.26555 33.2559 1.68182 32.6711 1.68182 31.9403V29.1628C1.68182 28.4319 2.26555 27.8472 2.99518 27.8472H25.395C26.1247 27.8472 26.7084 28.4319 26.7084 29.1628V31.9403C26.7084 32.6711 26.1247 33.2559 25.395 33.2559Z" fill="#E0E0E0"/>
<path d="M23.5709 42.8304H2.70334C1.53592 42.8304 0.660339 41.8803 0.660339 40.7839V37.4218C0.660339 36.2524 1.60888 35.3753 2.70334 35.3753H23.5709C24.7384 35.3753 25.6139 36.3255 25.6139 37.4218V40.7839C25.6139 41.9534 24.6654 42.8304 23.5709 42.8304Z" fill="#D07100"/>
<path d="M3.21406 34.3521C1.46293 34.3521 0.00366211 35.8139 0.00366211 37.5681V40.784C0.00366211 42.5381 1.46293 43.9999 3.21406 43.9999H28.3865V42.9767H3.21406C2.04664 42.9767 1.09812 42.0265 1.09812 40.8571V37.6411C1.09812 36.4717 2.04664 35.5215 3.21406 35.5215H28.3865V34.4983H3.21406V34.3521Z" fill="#29AAE3"/>
<path d="M25.395 42.8304H2.99518C2.26555 42.8304 1.68182 42.2457 1.68182 41.5148V36.6909C1.68182 35.96 2.26555 35.3753 2.99518 35.3753H25.395C26.1247 35.3753 26.7084 35.96 26.7084 36.6909V41.5148C26.7084 42.2457 26.1247 42.8304 25.395 42.8304Z" fill="#E0E0E0"/>
<path d="M18.8282 22.3655V25.216L19.9957 24.3389V22.3655H18.8282Z" fill="#DB3923"/>
<path d="M21.1632 22.3655V25.216L19.9957 24.3389V22.3655H21.1632Z" fill="#DB3923"/>
<path d="M13.1372 30.186V33.0365L14.3046 32.1594V30.186H13.1372Z" fill="#DB3923"/>
<path d="M15.472 30.186V33.0365L14.3046 32.1594V30.186H15.472Z" fill="#DB3923"/>
<path d="M21.1631 37.7142V41.4418L22.6953 40.3455V37.7142H21.1631Z" fill="#DB3923"/>
<path d="M24.3006 37.7142V41.4418L22.6954 40.3455V37.7142H24.3006Z" fill="#DB3923"/>
</svg>
