<svg width="30" height="44" viewBox="0 0 30 44" fill="none" xmlns="http://www.w3.org/2000/svg">
<path d="M25.9694 31.6974C25.9694 32.7105 24.9425 33.5066 23.6956 33.5066H2.27751C1.03056 33.5066 0.00366211 32.7105 0.00366211 31.6974V1.80921C0.00366211 0.796053 1.03056 0 2.27751 0H23.6956C24.9425 0 25.9694 0.796053 25.9694 1.80921V31.6974Z" fill="#196C91"/>
<path d="M24.1357 29.454C24.1357 30.25 23.2555 30.9737 22.1552 30.9737H3.67112C2.57088 30.9737 1.69067 30.3224 1.69067 29.454V5.1382C1.69067 4.34215 2.57088 3.61847 3.67112 3.61847H22.1552C23.2555 3.61847 24.1357 4.26978 24.1357 5.1382V29.454Z" fill="#BCFAFF"/>
<path d="M22.0086 12.375C22.0086 13.8224 21.2017 14.9803 20.1748 14.9803H6.31174C5.28484 14.9803 4.478 13.8224 4.478 12.375V9.04606C4.478 7.59869 5.28484 6.4408 6.31174 6.4408H20.1748C21.2017 6.4408 22.0086 7.59869 22.0086 9.04606V12.375Z" fill="#008C2E"/>
<path d="M22.0086 23.954C22.0086 25.4014 21.2017 26.5592 20.1748 26.5592H6.31174C5.28484 26.5592 4.478 25.4014 4.478 23.954V20.625C4.478 19.1777 5.28484 18.0198 6.31174 18.0198H20.1748C21.2017 18.0198 22.0086 19.1777 22.0086 20.625V23.954Z" fill="#008C2E"/>
<path d="M15.187 1.95399H10.7127C10.4927 1.95399 10.2726 1.73689 10.2726 1.51978C10.2726 1.30268 10.4927 1.08557 10.7127 1.08557H15.187C15.4071 1.08557 15.6271 1.30268 15.6271 1.51978C15.6271 1.73689 15.4071 1.95399 15.187 1.95399Z" fill="#004D68"/>
<path d="M28.4633 23.8092C27.8765 23.8092 27.2897 24.1711 27.0697 24.6777H26.9229V24.2434C26.9229 23.4474 26.2628 22.8684 25.4559 22.8684C24.6491 22.8684 23.989 23.5198 23.989 24.2434V23.954C23.989 23.1579 23.3288 22.579 22.522 22.579C21.7151 22.579 21.055 23.2303 21.055 23.954V16.2829C21.055 15.5592 20.3948 14.9803 19.588 14.9803C18.7811 14.9803 18.121 15.5592 18.121 16.2829V29.8158H17.5342L16.2872 28.8027C16.2872 28.8027 14.1601 27.2829 13.0599 27.7171C11.9596 28.1513 11.9596 29.0921 13.0599 29.8158C14.1601 30.6119 15.3337 30.7566 15.7005 31.625C17.0207 34.3027 19.0745 35.0263 19.808 35.1711V39.079H28.6834V35.0987C29.4902 34.8816 30.0036 33.5066 30.0036 31.9145V25.1119C29.9303 24.3882 29.2701 23.8092 28.4633 23.8092Z" fill="#FFC988"/>
<path d="M30.0037 36.9079H18.6345V44H30.0037V36.9079Z" fill="#29AAE3"/>
<path d="M10.786 9.98682H8.36551V10.7105H10.786V9.98682Z" fill="#02331E"/>
<path d="M11.0061 13.2435H7.99875V8.17767H11.0061V8.90136H8.73225V12.5198H11.0061V13.2435Z" fill="#02331E"/>
<path d="M12.9865 13.2435H11.5929V8.17767H12.9865C14.0868 8.17767 14.967 9.04609 14.967 10.1316V11.3619C14.967 12.375 14.0868 13.2435 12.9865 13.2435ZM12.3264 12.5198H12.9865C13.6467 12.5198 14.2335 12.0132 14.2335 11.2895V10.0593C14.2335 9.40794 13.72 8.82899 12.9865 8.82899H12.3264V12.5198Z" fill="#02331E"/>
<path d="M16.8741 13.2434C15.9206 13.2434 15.187 12.5197 15.187 11.5789V8.53943H15.9205V11.5789C15.9205 12.0855 16.3607 12.5197 16.8741 12.5197C17.3875 12.5197 17.8276 12.0855 17.8276 11.5789V8.53943H18.5611V11.5789C18.5611 12.5197 17.8276 13.2434 16.8741 13.2434Z" fill="#02331E"/>
</svg>
