<svg width="42" height="35" viewBox="0 0 42 35" fill="none" xmlns="http://www.w3.org/2000/svg">
<path d="M39.773 28.8007H2.2343C1.40577 28.8007 0.704712 28.0904 0.704712 27.2509V2.32472C0.704712 1.48524 1.40577 0.774902 2.2343 0.774902H39.773C40.6015 0.774902 41.3026 1.48524 41.3026 2.32472V27.2509C41.3026 28.0904 40.6653 28.8007 39.773 28.8007Z" fill="white"/>
<path d="M39.773 29.4465H2.23431C1.02339 29.4465 0.00366211 28.4133 0.00366211 27.1864V2.26015C0.00366211 1.03321 1.02339 0 2.23431 0H39.773C40.9839 0 42.0037 1.03321 42.0037 2.26015V27.1864C42.0037 28.4779 40.9839 29.4465 39.773 29.4465ZM2.23431 1.42066C1.72445 1.42066 1.34206 1.80812 1.34206 2.32473V27.2509C1.34206 27.7675 1.72445 28.155 2.23431 28.155H39.773C40.2829 28.155 40.6653 27.7675 40.6653 27.2509V2.32473C40.6653 1.80812 40.2829 1.42066 39.773 1.42066H2.23431Z" fill="#29AAE3"/>
<path d="M26.1341 29.382H16.7017V35H26.1341V29.382Z" fill="#196C91"/>
<path d="M33.0811 33.7731H9.88232V35.0007H33.0811V33.7731Z" fill="#29AAE3"/>
<path d="M8.22516 18.727C14.9808 21.1809 22.4376 21.1809 29.257 18.7916C29.257 15.3691 29.257 11.9466 29.257 8.52404C22.2464 8.52404 15.2358 8.52405 8.22516 8.45947C8.22516 11.882 8.22516 15.3045 8.22516 18.727Z" fill="#2A5973"/>
<path d="M4.33748 8.9761L18.6137 12.8506C18.6774 12.8506 18.8049 12.8506 18.9323 12.8506L33.2085 9.04068C33.7821 8.91153 33.7821 8.07205 33.2085 7.9429L18.9323 4.06836C18.8686 4.06836 18.7411 4.06836 18.6137 4.06836L4.33748 7.87832C3.76389 8.00747 3.76389 8.84695 4.33748 8.9761Z" fill="#196C91"/>
<path d="M10.5196 16.2086C10.647 16.2086 10.7745 16.0794 10.7745 15.9503V10.8488L18.8049 8.71778C18.9323 8.6532 18.9961 8.52405 18.9961 8.3949C18.9323 8.26575 18.8049 8.20117 18.6774 8.20117L10.2646 10.4613V15.9503C10.2646 16.144 10.3921 16.2086 10.5196 16.2086Z" fill="#FBB242"/>
<path d="M9.05371 17.4356C10.0734 17.7585 11.0932 17.7585 12.1129 17.4356C12.1129 16.6607 12.1129 15.8858 12.1129 15.1108C12.1129 14.2714 11.4118 13.561 10.5833 13.561C9.75477 13.561 9.05371 14.2714 9.05371 15.1108C9.05371 15.8858 9.05371 16.6607 9.05371 17.4356Z" fill="#FBB242"/>
<path d="M34.6108 21.4392L34.2284 19.8894L35.4393 20.2123C35.4393 20.2123 34.9294 19.2437 34.0372 18.8562C33.2086 18.5333 32.3164 18.5333 32.3164 18.5333C32.3164 18.5333 28.3012 20.2123 30.0857 20.2123C31.8065 20.2769 33.0174 19.8894 34.6108 21.4392Z" fill="#BF6D8E"/>
<path d="M30.022 20.2772L30.978 19.5665C30.7868 19.6311 30.5956 19.6958 30.4044 19.7604C30.2769 19.9542 30.1494 20.0834 30.022 20.2772Z" fill="#FF92BE"/>
<path d="M33.591 10.7842C32.8262 10.7842 32.1252 11.0425 31.6153 11.5591L28.6199 13.8838C29.0023 13.6901 29.4484 13.6255 29.8945 13.6255C31.5516 13.6255 32.9537 14.9816 32.9537 16.7251C32.9537 17.4355 32.6988 18.0812 32.3164 18.5978L35.3118 16.3377C36.1404 15.8211 36.6502 14.8524 36.6502 13.8192C36.5865 12.1403 35.2481 10.7842 33.591 10.7842Z" fill="#DDF2E9"/>
<path d="M29.8944 13.561C29.4483 13.561 29.0022 13.6902 28.6198 13.8193L27.4726 14.7234L26.5803 15.4337C26.7715 15.3691 26.899 15.3046 27.0902 15.3046C27.2814 15.3046 27.4088 15.24 27.6 15.24C29.2571 15.24 30.6592 16.5961 30.6592 18.3396C30.6592 18.8562 30.5318 19.3083 30.3406 19.6957C30.5318 19.6311 30.723 19.6311 30.9142 19.502L32.2525 18.5334C32.6349 18.0168 32.8899 17.371 32.8899 16.6607C32.9536 14.9817 31.5515 13.561 29.8944 13.561Z" fill="#FF92BE"/>
<path d="M27.6638 15.24C27.4726 15.24 27.3452 15.24 27.154 15.3046C26.9628 15.3046 26.7716 15.3691 26.6441 15.4337L25.1145 16.5961L21.1631 19.6957L24.7321 24.216L28.811 21.1809L30.0857 20.2123C30.2132 20.0186 30.3406 19.8894 30.4044 19.6957C30.5956 19.3083 30.723 18.7916 30.723 18.3396C30.723 16.6606 29.3209 15.24 27.6638 15.24Z" fill="#DDF2E9"/>
<path d="M23.0114 24.8619C24.5954 24.8619 25.8794 23.5608 25.8794 21.956C25.8794 20.3511 24.5954 19.05 23.0114 19.05C21.4275 19.05 20.1434 20.3511 20.1434 21.956C20.1434 23.5608 21.4275 24.8619 23.0114 24.8619Z" fill="#AACDC1"/>
<path d="M23.0114 25.1846C21.2268 25.1846 19.8247 23.764 19.8247 21.9558C19.8247 20.1477 21.2268 18.7271 23.0114 18.7271C24.7959 18.7271 26.198 20.1477 26.198 21.9558C26.198 23.6994 24.7959 25.1846 23.0114 25.1846ZM23.0114 19.3728C21.6092 19.3728 20.462 20.5352 20.462 21.9558C20.462 23.3765 21.6092 24.5389 23.0114 24.5389C24.4135 24.5389 25.5607 23.3765 25.5607 21.9558C25.5607 20.5352 24.4135 19.3728 23.0114 19.3728Z" fill="#DAF2E9"/>
</svg>
