<svg width="43" height="35" viewBox="0 0 43 35" fill="none" xmlns="http://www.w3.org/2000/svg">
<path d="M40.7199 28.8539H2.28745C1.4392 28.8539 0.721436 28.1423 0.721436 27.3013V2.26429C0.721436 1.42325 1.4392 0.711609 2.28745 0.711609H40.7199C41.5682 0.711609 42.2859 1.42325 42.2859 2.26429V27.2366C42.2859 28.1423 41.6334 28.8539 40.7199 28.8539Z" fill="white"/>
<path d="M40.7199 29.5009H2.28743C1.04767 29.5009 0.00366211 28.4658 0.00366211 27.2366V2.26433C0.00366211 1.03512 1.04767 0 2.28743 0H40.7199C41.9597 0 43.0037 1.03512 43.0037 2.26433V27.2366C43.0037 28.4658 41.9597 29.5009 40.7199 29.5009ZM2.28743 1.3586C1.76542 1.3586 1.37391 1.74677 1.37391 2.26433V27.2366C1.37391 27.7542 1.76542 28.1423 2.28743 28.1423H40.7199C41.2419 28.1423 41.6334 27.7542 41.6334 27.2366V2.26433C41.6334 1.74677 41.2419 1.3586 40.7199 1.3586H2.28743Z" fill="#29AAE3"/>
<path d="M26.7563 29.3716H17.0992V35H26.7563V29.3716Z" fill="#196C91"/>
<path d="M33.8686 33.7708H10.1175V35H33.8686V33.7708Z" fill="#29AAE3"/>
<path d="M20.6227 19.3437V21.3492H22.4498V20.5082L22.1235 20.8964L20.6227 19.3437Z" fill="#FFC988"/>
<path d="M21.5363 19.7319C21.21 19.7319 20.8837 19.6025 20.6227 19.3437L22.1235 20.8964L22.4498 20.5729V19.4731C22.1888 19.6025 21.8625 19.7319 21.5363 19.7319Z" fill="#F4B867"/>
<path d="M20.4922 19.7319L21.5362 20.3141L22.5802 19.7319L23.4285 20.3788L21.5362 22.9666L19.7092 20.3141L20.4922 19.7319Z" fill="#BCFAFF"/>
<path d="M23.037 18.3734C22.8413 19.2144 22.254 19.732 21.5362 19.732C20.8185 19.732 20.2965 19.1497 20.1007 18.3734C19.9702 18.3734 19.7745 18.0499 19.7092 17.6618C19.7092 17.2736 19.7092 17.0148 19.7092 16.9501C19.7745 16.9501 19.8397 17.0148 19.8397 17.0795L19.905 17.1442V17.0148C19.8397 16.8854 19.8397 16.756 19.8397 16.6266C19.8397 15.5915 20.6227 14.7505 21.5362 14.7505C22.4497 14.7505 23.2327 15.5915 23.2327 16.6266C23.2327 16.756 23.2328 16.8207 23.1675 17.0148V17.1442L23.2327 17.0795C23.298 17.0148 23.3633 16.9501 23.3633 16.9501C23.4285 17.0148 23.4285 17.2089 23.3633 17.6618C23.3633 18.0499 23.1675 18.3734 23.037 18.3734Z" fill="#FFC988"/>
<path d="M21.5363 15.9795C21.8625 15.9795 22.1235 15.8501 22.3193 15.8501C22.5803 15.8501 22.7108 16.1088 22.8413 16.3676C23.037 16.8205 22.9065 17.4027 23.1023 17.2087C23.3633 16.9499 23.1023 15.8501 23.1023 15.8501C23.1023 15.8501 22.8413 14.8796 21.993 14.8149C21.1448 14.6856 20.2965 14.9443 19.9702 15.7854C19.644 16.6264 19.8398 17.0793 19.905 17.2087C19.9703 17.3381 20.0355 17.0793 20.166 16.497C20.2965 15.9148 20.4923 15.7207 20.688 15.7854C20.949 15.8501 21.0795 15.9795 21.5363 15.9795Z" fill="#3F2F2F"/>
<path d="M21.8624 20.5083L21.5362 20.2495V23.3549L21.9929 22.6432L21.7319 20.8965L21.8624 20.5083Z" fill="#022616"/>
<path d="M21.5362 20.2495L21.21 20.5083L21.3405 20.8965L21.0795 22.6432L21.5362 23.3549V20.2495Z" fill="#02331E"/>
<path d="M21.5363 25.5544V22.9666L23.1023 20.12L25.7123 21.2198L26.43 25.5544H21.5363Z" fill="#2382A3"/>
<path d="M21.5362 25.5544V22.9666L19.9702 20.12L17.3602 21.2198L16.5772 25.5544H21.5362Z" fill="#05A2CC"/>
<path d="M23.6895 20.3788L23.1023 20.12L21.5363 22.9666L22.7108 21.9962V21.5433H23.1675L23.6895 20.3788Z" fill="#05A2CC"/>
<path d="M19.3177 20.3788L19.9703 20.12L21.5363 22.9666L20.3618 21.9962V21.5433H19.905L19.3177 20.3788Z" fill="#2382A3"/>
<path d="M18.4042 25.3603C18.4042 25.4897 18.5347 25.5544 18.6652 25.5544H24.2115C24.342 25.5544 24.4725 25.4897 24.4725 25.3603L24.9293 21.9962C24.9293 21.8668 24.864 21.8021 24.7335 21.8021H18.078C17.9475 21.8021 17.817 21.8668 17.8822 21.9962L18.4042 25.3603Z" fill="#055D7C"/>
<path d="M27.735 25.5544H15.2722V26.913H27.735V25.5544Z" fill="#004D68"/>
<path d="M19.383 17.791H19.644V16.1736C19.644 15.3326 20.3617 14.6857 21.2753 14.6857H21.8625C22.776 14.6857 23.4938 15.3326 23.4938 16.1736V17.791H23.7548V16.1736C23.7548 15.2032 22.9065 14.4269 21.8625 14.4269H21.2753C20.2312 14.4269 19.383 15.2032 19.383 16.1736V17.791Z" fill="#7D6B67"/>
<path d="M23.8853 16.95V18.0498C23.8853 18.3086 23.2328 18.5027 22.9718 18.5027V16.4971C23.2981 16.4971 23.8853 16.6912 23.8853 16.95Z" fill="#635552"/>
<path d="M19.2525 16.95V18.0498C19.2525 18.3086 19.905 18.5027 20.166 18.5027V16.4971C19.905 16.4971 19.2525 16.6912 19.2525 16.95Z" fill="#635552"/>
<path d="M9.66071 12.6803V14.2977H11.0962V13.6507L10.8352 13.9095L9.66071 12.6803Z" fill="#FFC988"/>
<path d="M10.4437 13.0038C10.1827 13.0038 9.9217 12.8744 9.72595 12.6803L10.9005 13.9095L11.1615 13.6507V12.745C10.9005 12.9391 10.7047 13.0038 10.4437 13.0038Z" fill="#F4B867"/>
<path d="M11.6182 11.9038C11.4224 12.5508 10.9657 13.0037 10.4437 13.0037C9.92168 13.0037 9.46493 12.5508 9.33443 11.9038C9.26918 11.9038 9.07343 11.6451 9.07343 11.3216C9.07343 10.9981 9.07343 10.804 9.07343 10.804C9.13868 10.804 9.13867 10.8687 9.20392 10.9334L9.26918 10.9981V10.9334C9.26918 10.804 9.20392 10.7393 9.20392 10.6746C9.20392 9.8336 9.79118 9.18665 10.5089 9.18665C11.2267 9.18665 11.8139 9.8336 11.8139 10.6746C11.8139 10.7393 11.8139 10.8687 11.7487 10.9334V10.9981L11.8139 10.9334C11.8792 10.8687 11.8792 10.804 11.9444 10.804C12.0097 10.8687 12.0097 10.9981 11.9444 11.3216C11.8792 11.6451 11.6834 11.9038 11.6182 11.9038Z" fill="#FFC988"/>
<path d="M10.3784 10.0277C10.6394 10.0277 10.8352 9.96299 11.0309 9.8983C11.2267 9.8983 11.3572 10.0924 11.4224 10.3512C11.5529 10.7393 11.4877 11.1922 11.6834 10.9981C11.8792 10.804 11.6834 9.8983 11.6834 9.8983C11.6834 9.8983 11.4877 9.12195 10.8352 9.05726C10.1827 8.99256 9.46493 9.12195 9.20393 9.8336C8.94293 10.5452 9.07343 10.8687 9.13868 10.9334C9.20394 10.9981 9.26919 10.804 9.33444 10.4159C9.46494 9.96299 9.59543 9.8336 9.72593 9.8336C9.98694 9.89829 10.0522 10.0277 10.3784 10.0277Z" fill="#3F2F2F"/>
<path d="M10.3785 17.597L10.4437 14.0387L11.0962 13.3271L12.5317 13.78C13.2495 14.0387 13.8367 14.6857 13.9673 15.3973L14.3588 17.597H10.3785Z" fill="#66BA82"/>
<path d="M10.3785 17.597L10.4437 14.0387L9.66071 13.3271L8.2252 13.78C7.50744 14.0387 6.92019 14.6857 6.78969 15.3973L6.39819 17.597H10.3785Z" fill="#99D1AB"/>
<path d="M7.9642 17.4676C7.9642 17.5322 8.0947 17.5969 8.15995 17.5969H12.597C12.7275 17.5969 12.7927 17.5322 12.7927 17.4676L13.1842 14.8151C13.1842 14.7504 13.119 14.6857 12.9885 14.6857H7.7032C7.5727 14.6857 7.50745 14.7504 7.50745 14.8151L7.9642 17.4676Z" fill="#055D7C"/>
<path d="M15.3375 17.5969H5.48468V18.6967H15.3375V17.5969Z" fill="#004D68"/>
<path d="M8.68195 11.451H8.87769V10.1571C8.87769 9.51011 9.46494 8.99255 10.1827 8.99255H10.6395C11.3572 8.99255 11.9445 9.51011 11.9445 10.1571V11.451H12.1402V10.1571C12.1402 9.38072 11.4877 8.79846 10.6395 8.79846H10.1827C9.33444 8.79846 8.68195 9.38072 8.68195 10.1571V11.451Z" fill="#7D6B67"/>
<path d="M12.2707 10.8041V11.7099C12.2707 11.9039 11.7487 12.098 11.553 12.098V10.4806C11.814 10.416 12.2707 10.61 12.2707 10.8041Z" fill="#635552"/>
<path d="M8.6167 10.8041V11.7099C8.6167 11.9039 9.13871 12.098 9.33446 12.098V10.4806C9.07346 10.416 8.6167 10.61 8.6167 10.8041Z" fill="#635552"/>
<path d="M31.8458 12.6803V14.2977H33.2813V13.6507L33.0203 13.9095L31.8458 12.6803Z" fill="#FFC988"/>
<path d="M32.5636 13.0038C32.3026 13.0038 32.0416 12.8744 31.8458 12.6803L33.0203 13.9095L33.2813 13.6507V12.745C33.0856 12.9391 32.8246 13.0038 32.5636 13.0038Z" fill="#F4B867"/>
<path d="M33.7381 11.9038C33.5423 12.5508 33.0856 13.0037 32.5636 13.0037C32.0415 13.0037 31.5848 12.5508 31.4543 11.9038C31.389 11.9038 31.1933 11.6451 31.1933 11.3216C31.1933 10.9981 31.1933 10.804 31.1933 10.804C31.2585 10.804 31.2585 10.8687 31.3238 10.9334L31.389 10.9981V10.9334C31.389 10.804 31.3238 10.7393 31.3238 10.6746C31.3238 9.8336 31.9111 9.18665 32.6288 9.18665C33.3466 9.18665 33.9338 9.8336 33.9338 10.6746C33.9338 10.7393 33.9338 10.8687 33.8686 10.9334V10.9981L33.9338 10.9334C33.9991 10.8687 33.9991 10.804 34.0643 10.804C34.1296 10.8687 34.1296 10.9981 34.0643 11.3216C33.9991 11.6451 33.8686 11.9038 33.7381 11.9038Z" fill="#FFC988"/>
<path d="M32.5636 10.0277C32.8246 10.0277 33.0203 9.96299 33.2161 9.8983C33.4118 9.8983 33.5423 10.0924 33.6076 10.3512C33.7381 10.7393 33.6728 11.1922 33.8686 10.9981C34.0643 10.804 33.8686 9.8983 33.8686 9.8983C33.8686 9.8983 33.6728 9.12195 33.0203 9.05726C32.3678 8.99256 31.6501 9.12195 31.389 9.8336C31.128 10.5452 31.2586 10.8687 31.3238 10.9334C31.3891 10.9981 31.4543 10.804 31.5196 10.4159C31.6501 9.96299 31.7806 9.8336 31.9111 9.8336C32.1068 9.89829 32.1721 10.0277 32.5636 10.0277Z" fill="#3F2F2F"/>
<path d="M32.5636 17.597L32.6289 14.0387L33.2814 13.3271L34.6516 13.78C35.3694 14.0387 35.9566 14.6857 36.0871 15.3973L36.4786 17.597H32.5636Z" fill="#66BA82"/>
<path d="M32.5636 17.597L32.6288 14.0387L31.8458 13.3271L30.4103 13.78C29.6926 14.0387 29.1053 14.6857 28.9748 15.3973L28.5833 17.597H32.5636Z" fill="#99D1AB"/>
<path d="M30.0841 17.4676C30.0841 17.5322 30.2146 17.5969 30.2798 17.5969H34.7169C34.8474 17.5969 34.9126 17.5322 34.9126 17.4676L35.3041 14.8151C35.3041 14.7504 35.2389 14.6857 35.1084 14.6857H29.8231C29.6926 14.6857 29.6273 14.7504 29.6273 14.8151L30.0841 17.4676Z" fill="#055D7C"/>
<path d="M37.4574 17.5969H27.6046V18.6967H37.4574V17.5969Z" fill="#004D68"/>
<path d="M30.8018 11.451H30.9976V10.1571C30.9976 9.51011 31.5848 8.99255 32.3026 8.99255H32.7593C33.4771 8.99255 34.0643 9.51011 34.0643 10.1571V11.451H34.2601V10.1571C34.2601 9.38072 33.6076 8.79846 32.7593 8.79846H32.3026C31.4543 8.79846 30.8018 9.38072 30.8018 10.1571V11.451Z" fill="#7D6B67"/>
<path d="M34.4559 10.8041V11.7099C34.4559 11.9039 33.9338 12.098 33.7381 12.098V10.4806C33.9338 10.416 34.4559 10.61 34.4559 10.8041Z" fill="#635552"/>
<path d="M30.7366 10.8041V11.7099C30.7366 11.9039 31.2586 12.098 31.4543 12.098V10.4806C31.2586 10.416 30.7366 10.61 30.7366 10.8041Z" fill="#635552"/>
<path d="M21.6015 10.9334H21.471C18.078 10.9334 15.4027 9.12197 15.4027 6.85765V6.79295C15.4027 4.52862 18.1432 2.71716 21.471 2.71716H21.6015C24.9945 2.71716 27.6698 4.52862 27.6698 6.79295V6.85765C27.6698 9.12197 24.9293 10.9334 21.6015 10.9334Z" fill="#196C91"/>
<path d="M13.1842 11.063C13.119 11.063 12.9885 10.9983 12.9885 10.8689C12.9885 10.7395 12.9885 10.6101 12.9885 10.5454C12.9885 10.4807 13.0537 10.3513 13.1842 10.416C13.2495 10.416 13.3147 10.4807 13.3147 10.6101C13.3147 10.7395 13.3147 10.8042 13.3147 10.9336C13.3147 10.9983 13.2495 11.063 13.1842 11.063Z" fill="#196C91"/>
<path d="M13.2495 10.0925C13.119 10.0925 13.0537 9.96309 13.119 9.89839C13.1842 9.70431 13.2495 9.44553 13.3147 9.25144C13.38 9.18675 13.4452 9.12205 13.5105 9.18675C13.5757 9.25144 13.641 9.31614 13.5757 9.38083C13.5105 9.57492 13.4452 9.769 13.38 9.96309C13.4452 10.0925 13.38 10.0925 13.2495 10.0925ZM13.7715 8.92797H13.7062C13.641 8.86327 13.5757 8.79858 13.641 8.73388C13.7715 8.5398 13.902 8.34571 14.0325 8.21632C14.0977 8.15163 14.2282 8.15163 14.2935 8.21632C14.3587 8.28102 14.3587 8.41041 14.2935 8.4751C14.163 8.60449 14.0325 8.79858 13.902 8.99266C13.902 8.92797 13.8367 8.92797 13.7715 8.92797ZM14.6197 7.95754C14.5545 7.95754 14.5545 7.95754 14.4892 7.89285C14.424 7.82815 14.424 7.69876 14.4892 7.63407C14.685 7.50468 14.8155 7.37529 15.0112 7.2459C15.0765 7.1812 15.207 7.2459 15.207 7.31059C15.2723 7.37529 15.207 7.50468 15.1417 7.50468C14.946 7.63407 14.8155 7.76346 14.6197 7.89285C14.685 7.95754 14.685 7.95754 14.6197 7.95754ZM15.729 7.31059C15.6637 7.31059 15.5985 7.2459 15.5985 7.1812C15.5332 7.11651 15.5985 6.98712 15.6638 6.98712C15.8595 6.92242 16.0553 6.85772 16.3163 6.79303C16.3815 6.79303 16.512 6.85773 16.512 6.92242C16.512 6.98712 16.4468 7.1165 16.3815 7.1165C16.1857 7.1165 15.99 7.1812 15.729 7.31059Z" fill="#196C91"/>
<path d="M16.9688 6.98705C16.9035 6.98705 16.8383 6.92235 16.773 6.85766C16.773 6.79296 16.8383 6.66357 16.9035 6.66357C17.034 6.66357 17.0993 6.66357 17.2298 6.66357C17.295 6.66357 17.4255 6.72827 17.4255 6.85766C17.4255 6.92235 17.3603 7.05174 17.2298 7.05174C17.2298 6.98705 17.0993 6.98705 16.9688 6.98705Z" fill="#196C91"/>
<path d="M29.6926 11.0629C29.6273 11.0629 29.4968 10.9982 29.4968 10.8688C29.4968 10.7394 29.4968 10.6747 29.4968 10.5453C29.4968 10.4806 29.5621 10.3513 29.6273 10.3513C29.6926 10.3513 29.8231 10.416 29.8231 10.4806C29.8231 10.61 29.8231 10.6747 29.8231 10.8041C29.8883 10.9982 29.7578 11.0629 29.6926 11.0629Z" fill="#196C91"/>
<path d="M29.5621 10.0925C29.4968 10.0925 29.4316 10.0278 29.4316 9.96315C29.3663 9.76906 29.3011 9.57498 29.2358 9.38089C29.1706 9.3162 29.2358 9.18681 29.3011 9.18681C29.3663 9.12211 29.4968 9.18681 29.4968 9.2515C29.5621 9.44559 29.6273 9.70437 29.6926 9.89845C29.7578 10.0278 29.6926 10.0925 29.5621 10.0925C29.6273 10.0925 29.6273 10.0925 29.5621 10.0925ZM29.1053 8.92803C29.0401 8.92803 28.9748 8.92803 28.9748 8.86333C28.8443 8.66925 28.7138 8.53986 28.5833 8.34577C28.5181 8.28108 28.5181 8.15169 28.5833 8.08699C28.6486 8.0223 28.7791 8.0223 28.8443 8.08699C28.9748 8.28108 29.1053 8.41047 29.2358 8.60455C29.3011 8.66925 29.2358 8.79864 29.1706 8.79864C29.1706 8.92803 29.1053 8.92803 29.1053 8.92803ZM28.2571 7.9576C28.1918 7.9576 28.1918 7.9576 28.1266 7.89291C27.9961 7.76352 27.8003 7.63413 27.6046 7.50474C27.5393 7.44004 27.4741 7.37535 27.5393 7.31065C27.6046 7.24596 27.6698 7.18126 27.7351 7.24596C27.9308 7.37535 28.1266 7.50474 28.2571 7.63413C28.3223 7.69882 28.3223 7.82821 28.2571 7.89291C28.3223 7.9576 28.3223 7.9576 28.2571 7.9576ZM27.1478 7.31065C26.8868 7.24596 26.6911 7.18126 26.4953 7.11657C26.4301 7.11657 26.3648 6.98718 26.3648 6.92248C26.3648 6.85779 26.4953 6.79309 26.5606 6.79309C26.7563 6.85779 27.0173 6.92248 27.2131 6.98718C27.2783 7.05187 27.3436 7.11657 27.2783 7.18126C27.2783 7.24596 27.2131 7.31065 27.1478 7.31065Z" fill="#196C91"/>
<path d="M25.8428 6.98699C25.7123 6.98699 25.647 6.98699 25.5165 6.98699C25.4513 6.98699 25.3208 6.92229 25.3208 6.7929C25.3208 6.72821 25.386 6.59882 25.5165 6.59882C25.647 6.59882 25.7775 6.59882 25.8428 6.59882C25.908 6.59882 25.9733 6.66351 25.9733 6.7929C26.0386 6.92229 25.9733 6.98699 25.8428 6.98699Z" fill="#196C91"/>
<path d="M21.6015 14.1035C21.5363 14.1035 21.4058 14.0388 21.4058 13.9094V13.2625C21.4058 13.1978 21.471 13.0684 21.6015 13.0684C21.6668 13.0684 21.7973 13.1331 21.7973 13.2625V13.9094C21.732 13.9741 21.6668 14.1035 21.6015 14.1035ZM21.6015 12.7449C21.5363 12.7449 21.4058 12.6802 21.4058 12.5508V11.9039C21.4058 11.8392 21.471 11.7098 21.6015 11.7098C21.6668 11.7098 21.7973 11.7745 21.7973 11.9039V12.5508C21.732 12.6802 21.6668 12.7449 21.6015 12.7449ZM21.6015 11.451C21.5363 11.451 21.4058 11.3863 21.4058 11.2569V10.9335C21.4058 10.8688 21.471 10.7394 21.6015 10.7394C21.6668 10.7394 21.7973 10.8041 21.7973 10.9335V11.3216C21.732 11.3863 21.6668 11.451 21.6015 11.451Z" fill="#196C91"/>
<path d="M18.2737 8.34554H17.295C17.2297 8.34554 17.2297 8.28084 17.2297 8.28084V5.36957C17.2297 5.30487 17.295 5.30487 17.295 5.30487H18.2737C18.339 5.30487 18.339 5.36957 18.339 5.36957L18.2737 5.43426H17.4255V8.15145H18.339C18.4042 8.15145 18.4042 8.21615 18.4042 8.21615C18.4042 8.28084 18.339 8.34554 18.2737 8.34554Z" fill="white"/>
<path d="M18.2737 6.85718H17.295C17.2297 6.85718 17.2297 6.79273 17.2297 6.79273C17.2297 6.72827 17.295 6.72827 17.295 6.72827H18.2737C18.339 6.72827 18.339 6.79273 18.339 6.79273C18.4042 6.85718 18.339 6.85718 18.2737 6.85718Z" fill="white"/>
<path d="M20.166 6.98658H19.2525C19.1873 6.98658 19.1873 6.92212 19.1873 6.92212C19.1873 6.85767 19.2525 6.85767 19.2525 6.85767H20.166C20.2313 6.85767 20.2313 6.92212 20.2313 6.92212C20.2313 6.98658 20.166 6.98658 20.166 6.98658Z" fill="white"/>
<path d="M20.166 7.69831H19.2525C19.1873 7.69831 19.1873 7.63385 19.1873 7.63385C19.1873 7.5694 19.2525 7.5694 19.2525 7.5694H20.166C20.2313 7.5694 20.2313 7.63385 20.2313 7.63385C20.2313 7.69831 20.166 7.69831 20.166 7.69831Z" fill="white"/>
<path d="M21.2753 8.34564C21.21 8.34564 21.21 8.28095 21.21 8.28095V6.66357C21.21 6.59888 21.2753 6.59888 21.2753 6.59888C21.3405 6.59888 21.3405 6.66357 21.3405 6.66357V8.28095C21.3405 8.28095 21.3405 8.34564 21.2753 8.34564Z" fill="white"/>
<path d="M22.1888 8.34552C22.1235 8.34552 22.1235 8.28082 22.1235 8.28082V6.98692C22.1235 6.92223 22.0583 6.79284 21.993 6.79284C21.8625 6.72814 21.732 6.72814 21.6015 6.79284L21.3405 7.05162C21.2753 7.05162 21.2753 7.05162 21.21 7.05162C21.21 6.98692 21.21 6.98692 21.21 6.92223L21.5363 6.66345C21.732 6.53406 21.9278 6.53406 22.1235 6.66345C22.254 6.72814 22.3193 6.85753 22.3193 6.98692V8.28082C22.254 8.28082 22.254 8.34552 22.1888 8.34552Z" fill="white"/>
<path d="M23.1675 8.34552C23.1023 8.34552 23.1023 8.28082 23.1023 8.28082V6.98692C23.1023 6.92223 23.037 6.79284 22.9718 6.79284C22.8413 6.72814 22.7108 6.72814 22.5803 6.79284L22.254 7.05162C22.1888 7.05162 22.1888 7.05162 22.1235 7.05162C22.1235 6.98692 22.1235 6.98692 22.1235 6.92223L22.4498 6.66345C22.6455 6.53406 22.8413 6.53406 23.037 6.66345C23.1675 6.72814 23.2328 6.85753 23.2328 6.98692V8.28082C23.2328 8.28082 23.2328 8.34552 23.1675 8.34552Z" fill="white"/>
<path d="M24.342 8.34564C24.0158 8.34564 23.82 8.08686 23.82 7.82808V7.05174C23.82 6.79296 24.081 6.53418 24.342 6.53418C24.6683 6.53418 24.864 6.79296 24.864 7.05174C24.864 7.11643 24.7988 7.11643 24.7988 7.11643C24.7335 7.11643 24.7335 7.11643 24.7335 7.05174C24.7335 6.85765 24.5378 6.66357 24.342 6.66357C24.1463 6.66357 23.9505 6.85765 23.9505 7.05174V7.82808C23.9505 8.02216 24.1463 8.21625 24.342 8.21625C24.5378 8.21625 24.7335 8.02216 24.7335 7.82808V7.69869C24.7335 7.63399 24.7988 7.634 24.7988 7.634C24.864 7.634 24.864 7.69869 24.864 7.69869V7.82808C24.864 8.08686 24.603 8.34564 24.342 8.34564Z" fill="white"/>
<path d="M26.0385 6.92238H25.386C25.3208 6.92238 25.3208 6.92238 25.3208 6.85768V6.79298L25.9081 6.21073C25.9733 6.14604 25.9733 6.08134 25.9733 6.01665V5.88726C25.9733 5.75787 25.8428 5.62847 25.7123 5.62847C25.5818 5.62847 25.4513 5.75787 25.4513 5.88726V6.01665C25.4513 6.08134 25.386 6.08134 25.386 6.08134C25.3208 6.08134 25.3208 6.01665 25.3208 6.01665V5.88726C25.3208 5.69317 25.5165 5.49908 25.7123 5.49908C25.9733 5.49908 26.1038 5.69317 26.1038 5.88726V6.01665C26.1038 6.14604 26.0386 6.21073 25.9733 6.27543L25.5165 6.72829H25.9733C26.0386 6.72829 26.0385 6.79298 26.0385 6.79298C26.1038 6.85768 26.1038 6.92238 26.0385 6.92238Z" fill="white"/>
</svg>
