<svg width="68" height="64" viewBox="0 0 68 64" fill="none" xmlns="http://www.w3.org/2000/svg">
<path d="M19.0768 49.4255H26.5851C27.7629 49.4255 28.7934 48.6158 29.0879 47.5116L30.8545 41.181H36.0809L37.9948 47.5852C38.2893 48.6894 39.3934 49.4255 40.4976 49.4255H48.3004C49.1101 49.4255 49.9198 49.0574 50.4351 48.3213C50.9504 47.6588 51.0976 46.7755 50.8031 45.9658L40.8656 13.8714C40.4976 12.7672 39.5407 12.0311 38.3629 12.0311H28.7934C27.6157 12.0311 26.5851 12.7672 26.2906 13.8714L16.5004 46.0394C16.2796 46.8491 16.4268 47.7324 16.8684 48.3949C17.4573 48.9838 18.267 49.4255 19.0768 49.4255ZM18.8559 46.7019L28.6462 14.6075C28.6462 14.5339 28.7198 14.4602 28.7934 14.4602H38.3629C38.4365 14.4602 38.5101 14.5339 38.5101 14.6075L48.4476 46.7019C48.4476 46.7755 48.4476 46.8491 48.4476 46.8491C48.374 46.9227 48.374 46.9227 48.3004 46.9227H40.4976C40.424 46.9227 40.3504 46.8491 40.3504 46.7755L38.1421 39.5616C37.9948 39.0463 37.4795 38.6783 36.9643 38.6783H29.8976C29.3823 38.6783 28.867 39.0463 28.7198 39.5616L26.7323 46.7755C26.7323 46.8491 26.6587 46.9227 26.5851 46.9227H19.0768C19.0032 46.9227 18.9295 46.9227 18.9295 46.8491C18.8559 46.8491 18.8559 46.7755 18.8559 46.7019Z" fill="#798EE4"/>
<path d="M31.8114 32.9366H35.1976C35.5656 32.9366 35.9337 32.7894 36.1545 32.4214C36.3753 32.1269 36.449 31.6853 36.3753 31.3172L34.8295 26.1644C34.7559 25.9436 34.6823 25.7228 34.6087 25.4283C34.4614 24.913 33.9462 24.545 33.4309 24.545C32.9156 24.545 32.4004 24.913 32.2531 25.4283C32.1795 25.7228 32.1059 26.0172 32.0323 26.238L30.6337 31.2436C30.5601 31.6116 30.6337 31.9797 30.8545 32.2741C31.0753 32.7158 31.4434 32.9366 31.8114 32.9366Z" fill="#798EE4"/>
<path d="M12.3781 56.4921C15.1753 58.8477 18.7823 60.688 23.0517 62.013C27.1739 63.2643 31.6642 64.0005 36.1545 64.0005C44.3989 64.0005 51.9072 61.7185 57.3545 57.5963C60.5197 55.2407 62.9489 52.2963 64.642 48.8366C66.4823 45.0824 67.3655 40.813 67.3655 36.0282C67.3655 34.7769 67.2919 33.4519 67.1447 32.1269C66.6294 27.1213 65.3781 22.7046 63.3906 18.9505C60.667 13.7241 56.4711 9.67551 51.0975 7.02551C49.4045 6.21579 47.5642 5.47964 45.6503 4.96436C50.1406 4.66992 54.9989 4.81717 60.0781 5.40606C60.667 5.47967 61.2559 5.33244 61.6975 4.89077C62.1392 4.52272 62.4336 4.00744 62.5072 3.41855C62.5808 2.82966 62.4336 2.24076 61.992 1.7991C61.6239 1.35743 61.1086 1.063 60.5197 0.989392C56.9128 0.621337 53.3794 0.400513 50.0669 0.400513C42.1906 0.400513 35.1239 1.50465 29.0142 3.63937C28.7198 3.71298 28.4253 3.86021 28.1309 4.00743H28.0573C23.567 4.59632 19.0031 5.8477 14.9545 7.54075C8.62395 10.1171 3.69198 13.6505 0.526703 17.6255C0.158648 18.0671 0.0114434 18.656 0.0850545 19.2449C0.158666 19.8338 0.453092 20.3491 0.894758 20.7172C1.8517 21.4533 3.25032 21.306 3.98643 20.3491C6.19476 17.4783 9.94894 14.7547 14.4392 12.5463C12.8198 14.1658 11.4212 15.8588 10.1698 17.7727C6.56284 23.2935 4.57531 29.8449 4.57531 36.6908C4.57531 41.8435 5.67947 46.7019 7.74058 50.8977C8.84475 52.8852 10.3906 54.7991 12.3781 56.4921ZM5.9003 36.6171C5.9003 29.9921 7.74061 23.7352 11.2739 18.3616C13.1142 15.638 15.3225 13.1352 18.0461 11.0005L21.0642 8.57132L17.0892 10.0435C16.7948 10.1172 16.5003 10.2644 16.2059 10.4116C10.4642 12.7672 5.8267 16.0061 3.10309 19.5394C2.73504 19.9811 2.14617 20.0546 1.70451 19.6866C1.48367 19.5394 1.33645 19.3186 1.33645 19.0241C1.33645 18.7297 1.41005 18.5088 1.55728 18.288C4.57533 14.4602 9.36002 11.0741 15.4697 8.57132C19.4447 6.95188 23.935 5.70048 28.3517 5.11159L28.6461 5.038C28.9406 4.89078 29.235 4.81715 29.5295 4.74354C35.492 2.60882 42.4114 1.57827 50.1406 1.57827C53.4531 1.57827 56.9128 1.7991 60.4461 2.16715C60.7406 2.16715 60.9614 2.31437 61.1086 2.53521C61.2558 2.75604 61.3295 2.97687 61.3295 3.27132C61.3295 3.56576 61.1823 3.78661 60.9614 3.93384C60.7406 4.08106 60.5198 4.15466 60.2253 4.15466C53.5267 3.41855 47.1961 3.41857 41.6017 4.08107L37.3322 4.59631L41.6017 5.33242C44.9142 5.8477 47.9323 6.80468 50.6559 8.12968C55.8086 10.6325 59.7836 14.4602 62.36 19.4658C64.2739 23.1463 65.4517 27.4157 65.967 32.2005C66.1142 33.5255 66.1878 34.7769 66.1878 36.0282C66.1878 40.5921 65.3045 44.7144 63.6114 48.3213C61.992 51.6338 59.71 54.4311 56.6919 56.6394C51.4656 60.6144 44.1781 62.8227 36.2281 62.8227C31.885 62.8227 27.4684 62.1602 23.4934 60.9088C19.4448 59.6574 15.9114 57.8172 13.2614 55.6088C11.3475 53.9894 9.94892 52.2227 8.99198 50.3088C6.93087 46.2602 5.9003 41.5491 5.9003 36.6171Z" fill="#798EE4"/>
<path d="M14.4392 53.9894C16.0586 55.388 18.1197 56.5657 20.4017 57.5963C25.0392 59.6574 30.56 60.7616 36.0808 60.7616C41.6017 60.7616 46.8281 59.6574 51.0975 57.5963C55.9558 55.2407 59.4892 51.8547 61.6239 47.3644C63.2433 44.0519 64.053 40.2241 64.053 35.9547C64.053 34.7769 63.9795 33.5255 63.9059 32.3477C63.4642 27.7838 62.36 23.7352 60.5197 20.3491C58.9003 17.1838 56.6183 14.5338 53.8947 12.4727C48.9628 8.71855 42.3378 6.73106 34.6823 6.73106C32.842 6.73106 30.9281 6.87829 28.867 7.09912L28.7197 7.17271C26.585 7.98243 24.5239 9.01299 22.7572 10.1172C16.7211 13.7977 12.4517 18.8033 9.9489 25.0602C8.47668 28.7408 7.81421 32.6421 7.81421 36.6171C7.81421 41.181 8.84475 45.7449 10.6114 49.4255C11.4948 51.0449 12.8198 52.5908 14.4392 53.9894ZM9.1392 36.6171C9.1392 32.7158 9.8753 29.0352 11.2003 25.5019C13.5559 19.4658 17.6781 14.6811 23.4934 11.1477C25.1864 10.1172 27.1739 9.16024 29.235 8.35052C31.2225 8.12968 33.0628 7.98246 34.8295 7.98246C42.1906 7.98246 48.5947 9.89635 53.3058 13.5033C55.8822 15.4908 58.017 17.9936 59.5628 21.0116C61.2558 24.3241 62.36 28.1519 62.8017 32.5685C62.9489 33.7463 62.9489 34.9241 62.9489 36.0283C62.9489 40.0769 62.2128 43.7574 60.667 46.8491C58.6058 51.0449 55.2933 54.2838 50.7295 56.4921C46.6072 58.4796 41.6017 59.5839 36.2281 59.5839C30.8545 59.5839 25.4808 58.4796 20.9906 56.5657C18.7822 55.6088 16.8684 54.431 15.3225 53.106C13.7767 51.781 12.5989 50.3824 11.8628 48.9102C10.0962 45.3769 9.1392 41.0338 9.1392 36.6171Z" fill="#798EE4"/>
</svg>
