<svg width="52" height="64" viewBox="0 0 52 64" fill="none" xmlns="http://www.w3.org/2000/svg">
<path d="M51.1685 23.9632C51.1685 18.8284 49.3644 13.763 46.1031 9.80782C41.8704 4.60366 35.556 1.68932 28.8947 1.68932C22.2334 1.68932 15.919 4.67305 11.6863 9.80782C8.42499 13.763 6.62085 18.8284 6.62085 23.9632C6.62085 36.245 16.6129 46.237 28.8947 46.237C41.1765 46.3064 51.1685 36.3144 51.1685 23.9632ZM48.8787 23.9632C48.8787 25.004 48.8093 25.9754 48.6705 26.9469C45.4093 29.2367 42.0786 30.8327 38.6785 31.8041C38.8867 30.8327 39.0949 29.8612 39.1642 28.8898C39.5806 24.3101 38.6785 19.9386 37.2907 16.0528C39.9275 15.3589 42.6337 14.2487 45.3399 12.5834C47.5603 15.914 48.8787 19.9386 48.8787 23.9632ZM37.9846 28.8204C37.8458 30 37.6377 31.1102 37.3602 32.2204C31.8784 33.5388 26.2579 33.1919 20.568 31.1796C20.4293 31.1102 20.2905 31.0408 20.1517 31.0408C20.0129 30.347 19.8741 29.5837 19.8047 28.8898C19.319 24.2407 20.4293 19.7305 21.9558 15.7753C24.4538 16.4692 27.2987 17.0243 30.3519 17.0243C32.156 17.0243 34.0989 16.8161 36.0417 16.3998C37.4989 20.1468 38.401 24.4489 37.9846 28.8204ZM44.299 11.3344C44.3684 11.4732 44.4378 11.5426 44.5766 11.6813C41.9398 13.2773 39.303 14.3875 36.805 15.012C34.8621 10.1548 32.156 6.19959 30.6294 4.11793C35.9724 4.53426 40.899 7.10167 44.299 11.3344ZM28.8947 4.04855C28.9641 4.04855 29.0335 4.04855 29.1029 4.04855C30.4212 5.71389 33.4744 9.87723 35.6254 15.2896C30.6988 16.3304 26.1191 15.7059 22.3721 14.665C24.5232 9.59966 27.4375 5.6445 28.6865 4.04855C28.7559 4.04855 28.8253 4.04855 28.8947 4.04855ZM27.16 4.11793C25.6334 6.06081 23.2048 9.73843 21.2619 14.3181C17.7925 13.2079 15.2251 11.6813 13.9067 10.8487C17.3067 6.89349 22.0252 4.53426 27.16 4.11793ZM8.91072 23.9632C8.91072 19.5223 10.4373 15.1508 13.1434 11.6813C14.4618 12.5834 17.168 14.1099 20.8456 15.3589C19.2496 19.3835 18.2088 24.102 18.6945 28.9592C18.7639 29.5143 18.8333 30 18.9027 30.4857C13.9761 28.404 10.4373 25.5591 8.98009 24.3101C8.9107 24.1713 8.91072 24.1019 8.91072 23.9632ZM8.98009 25.8367C10.923 27.4326 14.3924 29.9306 19.1108 31.8041C20.1517 36.3144 22.5803 40.3389 26.3967 43.8084C17.168 42.6981 9.88214 35.2042 8.98009 25.8367ZM28.8947 43.9472C28.6865 43.9472 28.5478 43.9472 28.3396 43.9472C24.2457 40.5471 21.6089 36.6613 20.4293 32.2898C23.3436 33.3307 26.813 34.0939 30.6988 34.0939C32.7111 34.0939 34.7927 33.8858 36.9438 33.4C35.6254 37.3552 33.058 40.894 29.3804 43.9472C29.2417 43.9472 29.0335 43.9472 28.8947 43.9472ZM31.3233 43.8084C34.7928 40.6165 37.0826 37.0776 38.2622 33.0531C41.4541 32.2204 44.8541 30.7633 48.3236 28.5428C46.4501 36.6613 39.65 42.8369 31.3233 43.8084Z" fill="#798EE4"/>
<path d="M24.5926 54.425H18.0006C15.3639 54.425 13.2128 56.576 13.2128 59.2128C13.2128 61.8496 15.3639 64.0007 18.0006 64.0007H39.8581C42.4949 64.0007 44.646 61.8496 44.646 59.2128C44.646 56.576 42.4949 54.425 39.8581 54.425H33.2662V53.3148C33.2662 52.6903 33.1274 52.0658 32.9192 51.58C35.4172 51.2331 38.054 50.6086 40.7602 49.6372C41.5234 49.3596 41.9398 48.5269 41.6622 47.833C41.3847 47.0697 40.552 46.6534 39.8581 46.931C35.0703 48.5963 30.56 49.2902 26.4661 48.9433C14.1149 47.9718 3.70652 36.1757 3.63713 23.2694C3.63713 21.1877 3.84529 19.1061 4.33102 17.2325C5.09429 14.1101 6.55148 11.1263 8.56376 8.69773C10.7148 6.06095 13.421 3.90987 16.1271 2.73026C16.821 2.38332 17.168 1.55068 16.8904 0.856795C16.5435 0.162907 15.7108 -0.184063 15.0169 0.0934923C11.825 1.48127 8.84129 3.84048 6.41268 6.89359C4.12285 9.66915 2.52693 12.9998 1.62488 16.608C1.13915 18.6897 0.861572 20.9795 0.861572 23.3388C0.930961 37.2859 11.8944 49.9841 25.0783 51.7882C24.8701 52.2739 24.7314 52.829 24.7314 53.4535V54.425H24.5926ZM25.7028 56.7148C26.3273 56.7148 26.8824 56.2291 26.8824 55.5352V53.3148C26.8824 52.7596 27.16 52.2046 27.5069 51.8576C27.7845 51.8576 28.062 51.8576 28.409 51.8576C29.0335 51.8576 29.5886 51.8576 30.2131 51.7882C30.6294 52.1351 30.9069 52.6903 30.9069 53.3148V55.6046C30.9069 56.2291 31.3927 56.7842 32.0866 56.7842H39.8581C41.2459 56.7842 42.3561 57.8944 42.3561 59.2822C42.3561 60.67 41.2459 61.7802 39.8581 61.7802H18.0006C16.6129 61.7802 15.5026 60.67 15.5026 59.2822C15.5026 57.8944 16.6129 56.7842 18.0006 56.7842H25.7028V56.7148Z" fill="#798EE4"/>
</svg>
