<svg width="48" height="36" viewBox="0 0 48 36" fill="none" xmlns="http://www.w3.org/2000/svg">
<path d="M44.6614 29.5765H4.88582C3.95246 29.5765 3.2345 28.8706 3.2345 27.953V2.32946C3.2345 1.41181 3.95246 0.705933 4.88582 0.705933H44.6614C45.5948 0.705933 46.3128 1.41181 46.3128 2.32946V27.953C46.3128 28.8706 45.5948 29.5765 44.6614 29.5765Z" fill="white"/>
<path d="M44.6614 30.2823H4.88584C3.59349 30.2823 2.51654 29.2235 2.51654 27.9529V2.32941C2.51654 1.05882 3.59349 0 4.88584 0H44.6614C45.9538 0 47.0307 1.05882 47.0307 2.32941V27.9529C47.0307 29.2235 45.9538 30.2823 44.6614 30.2823ZM4.88584 1.41176C4.38326 1.41176 3.95248 1.83529 3.95248 2.32941V27.9529C3.95248 28.4471 4.38326 28.8706 4.88584 28.8706H44.6614C45.164 28.8706 45.5948 28.4471 45.5948 27.9529V2.32941C45.5948 1.83529 45.164 1.41176 44.6614 1.41176H4.88584Z" fill="#05A2CC"/>
<path d="M30.1584 30.2117H20.1786V35.9999H30.1584V30.2117Z" fill="#196C91"/>
<path d="M37.5535 34.6588H12.9989V35.9294H37.5535V34.6588Z" fill="#05A2CC"/>
<path d="M6.17816 17.0118H6.75255V13.4118C6.75255 11.5765 8.40389 10.0941 10.4142 10.0941H11.7065C13.7169 10.0941 15.3682 11.5765 15.3682 13.4118V17.0118H15.9426V13.4118C15.9426 11.2941 14.0759 9.52942 11.7783 9.52942H10.486C8.11668 9.52942 6.32176 11.2941 6.32176 13.4118V17.0118H6.17816Z" fill="#123856"/>
<path d="M16.0862 15.0352V17.5058C16.0862 18.0705 14.722 18.5646 14.0759 18.5646V14.047C14.722 14.047 16.0862 14.5411 16.0862 15.0352Z" fill="#123856"/>
<path d="M5.89099 15.0352V17.5058C5.89099 18.0705 7.25514 18.5646 7.82952 18.5646V14.047C7.25514 14.047 5.89099 14.5411 5.89099 15.0352Z" fill="#123856"/>
<path d="M13.3579 20.1882H8.61932V22.3059H13.3579V20.1882Z" fill="#FFBB61"/>
<path d="M18.5273 24.7765L14.7938 23.2235H7.11157L3.37811 24.7765C2.15756 25.2706 1.29599 26.3294 1.1524 27.6706L0.00366211 36H21.83L20.6812 27.6706C20.6094 26.3294 19.7479 25.2706 18.5273 24.7765Z" fill="#02331E"/>
<path d="M14.3631 19.1293C14.6503 18.4235 15.1528 16.094 15.1528 16.094C15.2246 15.7411 15.2247 15.3882 15.2247 15.1764C15.2247 12.6352 13.3579 10.5176 11.0604 10.5176C8.69112 10.5176 6.89618 12.6352 6.89618 15.1764C6.89618 15.4588 6.82439 15.8117 6.96798 16.094C6.96798 16.094 7.39877 18.3529 7.75776 19.0588C7.97315 19.6235 8.69111 20.5411 9.48088 20.894C10.3424 21.247 12.0656 21.3176 12.9272 20.9646C13.4297 20.5411 14.0759 19.694 14.3631 19.1293Z" fill="#3C2415"/>
<path d="M13.3579 21.6H8.47571L7.11157 23.2235H14.8657L13.3579 21.6Z" fill="#355C4B"/>
<mask id="mask0_1_67" style="mask-type:luminance" maskUnits="userSpaceOnUse" x="14" y="0" width="34" height="29">
<path d="M47.318 0.847046H14.4349V28.8706H47.318V0.847046Z" fill="white"/>
</mask>
<g mask="url(#mask0_1_67)">
<path d="M21.9736 13.4824C22.4761 13.9059 22.5479 14.6824 22.189 15.3177L21.7582 15.953C21.7582 15.953 19.7479 14.4 19.6761 14.3294C18.4555 12.9883 18.7427 12.1412 19.1017 12C19.4607 11.9294 20.4658 12.6353 21.2556 13.0589C21.3274 13.0589 21.7582 13.3412 21.9736 13.4824Z" fill="#FFC988"/>
<path d="M34.8975 11.153L34.6816 11.2235C34.7536 11.2235 34.8975 11.2235 34.8975 11.153Z" fill="#3F3F3F"/>
<path d="M26.1378 16.7294L29.1533 12.7765C29.8712 12.4941 30.4456 12.5647 31.02 12.9882C31.5944 13.3412 31.5226 13.9059 31.02 14.4L26.9276 19.2C26.6404 19.4823 26.2814 19.6941 25.8506 19.6941C25.707 19.6941 25.4916 19.6941 25.348 19.6235L20.8248 15.6L22.4762 13.8353L26.1378 16.7294Z" fill="#004D68"/>
<path d="M39.4921 12.7765C39.851 12.7059 40.4254 12.4942 40.7126 13.3412L44.7332 25.9059L42.2203 26.6824L38.1279 13.9765C37.9843 13.4118 38.7741 12.9883 39.4921 12.7765Z" fill="#004D68"/>
<path d="M21.9735 12C21.9017 12.7765 22.9787 13.6236 22.1889 14.1177C21.9735 14.2589 20.8966 12.7765 21.6863 11.7883C21.7581 11.6471 21.9735 11.7883 21.9735 12Z" fill="#FFC988"/>
<path d="M36.2614 10.8706V13.8353H33.5331V12.5647L34.0357 13.0588L36.2614 10.8706Z" fill="#FFC988"/>
<path d="M34.8253 11.4353C35.3997 11.4353 35.9022 11.2235 36.2612 10.8706L33.9637 13.1294L33.4611 12.6353V11.0118C33.8919 11.2235 34.3227 11.4353 34.8253 11.4353Z" fill="#FBB242"/>
<path d="M34.3227 27.6001H30.4457V42.6354H34.3227V27.6001Z" fill="#004D68"/>
<path d="M36.4766 11.2235L34.8971 12.2117L33.3175 11.2235L31.6662 12L34.8971 16.0941L37.9126 12L36.4766 11.2235Z" fill="#BCFAFF"/>
<path d="M34.2509 12.5647L34.8253 12.2118V16.7294L34.1073 15.6706L34.5381 13.0589L34.2509 12.5647Z" fill="#C4504B"/>
<path d="M34.897 12.2118L35.3996 12.5647L35.1842 13.0589L35.615 15.6706L34.8253 16.7294V12.2118H34.897Z" fill="#E25454"/>
<path d="M32.0252 11.7177L34.8971 16.0941L37.4818 11.7177L40.1383 12.7059L39.1331 27.6H35.1843H34.3227H30.4457H30.3739L29.2251 12.7765L32.0252 11.7177Z" fill="#004D68"/>
<path d="M31.1636 12.0706L32.0252 11.7177L34.8971 16.0941L33.0304 14.7529L33.1021 14.0471H32.3842L31.1636 12.0706Z" fill="#196C91"/>
<path d="M38.4152 12.0706L37.4818 11.7177L34.8971 16.0941L36.7638 14.7529L36.692 14.0471H37.41L38.4152 12.0706Z" fill="#196C91"/>
<path d="M39.0613 27.6001H35.1843V42.6354H39.0613V27.6001Z" fill="#004D68"/>
<path d="M32.5278 9.38826L32.5996 9.31767V9.38826C32.815 10.5883 33.7483 11.3647 34.8253 11.3647C35.9022 11.3647 36.7638 10.5177 37.051 9.38826V9.31767H37.1228C37.1228 9.31767 37.1228 9.31767 37.1946 9.31767C37.41 9.31767 37.6971 8.82355 37.7689 8.32944C37.8407 7.69414 37.769 7.41179 37.6972 7.3412C37.6254 7.3412 37.5536 7.41179 37.41 7.55297C37.4818 7.3412 37.4818 7.20002 37.4818 7.05885C37.4818 5.57649 36.333 4.30591 34.8971 4.30591C33.4611 4.30591 32.3124 5.50591 32.3124 7.05885C32.3124 7.20002 32.3124 7.41179 32.3842 7.55297C32.3124 7.41179 32.1688 7.3412 32.1688 7.3412C32.097 7.41179 32.097 7.76473 32.097 8.32944C32.0252 8.89414 32.3842 9.38826 32.5278 9.38826Z" fill="#FFC988"/>
<path d="M34.897 5.92934C34.3945 5.92934 34.0355 5.78816 33.6765 5.71757C33.3175 5.71757 33.0303 6.07051 32.8867 6.49404C32.5995 7.19992 32.8149 8.04698 32.4559 7.69404C32.097 7.3411 32.4559 5.71757 32.4559 5.71757C32.4559 5.71757 32.8867 4.30581 34.1791 4.16463C35.4714 4.02345 36.8356 4.30581 37.3382 5.57639C37.7689 6.84698 37.5535 7.48228 37.4099 7.62345C37.2663 7.76463 37.1946 7.41169 36.9792 6.63522C36.7638 5.85875 36.5484 5.50581 36.1894 5.57639C35.7586 5.71757 35.615 5.85875 34.897 5.92934Z" fill="#9B5107"/>
<path d="M42.5793 26.6823C42.5793 26.9646 42.6511 27.3881 42.7229 27.7411C42.5793 27.5999 42.4357 27.4587 42.3639 27.247L42.2203 26.8234L42.5793 26.6823Z" fill="#FFC988"/>
<path d="M44.087 27.953C44.2306 27.953 44.3024 27.8824 44.3742 27.8118C44.3742 27.953 44.3024 28.0236 44.2306 28.1648C44.087 28.4471 43.5845 29.2236 43.2255 28.7295C43.0101 28.4471 42.8665 28.0942 42.7229 27.6707C42.9383 27.8824 43.2973 28.0236 43.6563 28.0236C43.7998 28.0236 43.9434 28.0236 44.087 27.953Z" fill="#FFC988"/>
<path d="M44.3742 26.1176C44.446 26.7528 44.5178 27.247 44.3742 27.8823C44.3025 27.9528 44.1589 27.9528 44.0871 28.0234C43.9435 28.0234 43.7999 28.094 43.7281 28.094C43.3691 28.094 43.0101 27.9528 42.7947 27.7411C42.7229 27.3881 42.6511 27.0352 42.6511 26.6823L44.3742 26.1176Z" fill="#FFC988"/>
</g>
<path d="M15.5118 8.47053H14.0759C14.0041 8.47053 13.8605 8.39994 13.8605 8.25876V4.16465C13.8605 4.09406 13.9323 3.95288 14.0759 3.95288H15.5118C15.5836 3.95288 15.7272 4.02347 15.7272 4.16465C15.7272 4.23523 15.6554 4.37641 15.5118 4.37641H14.2913V8.11758H15.5118C15.5836 8.11758 15.7272 8.18817 15.7272 8.32935C15.7272 8.39994 15.5836 8.47053 15.5118 8.47053Z" fill="#02331E"/>
<path d="M15.5118 6.42353H14.0759C14.0041 6.42353 13.8605 6.35294 13.8605 6.21176C13.8605 6.14118 13.9323 6 14.0759 6H15.5118C15.5836 6 15.7272 6.07059 15.7272 6.21176C15.7272 6.35294 15.5836 6.42353 15.5118 6.42353Z" fill="#02331E"/>
<path d="M18.1683 6.56464H16.876C16.8042 6.56464 16.6606 6.49405 16.6606 6.35288C16.6606 6.28229 16.7324 6.14111 16.876 6.14111H18.1683C18.2401 6.14111 18.3837 6.2117 18.3837 6.35288C18.3837 6.49405 18.3119 6.56464 18.1683 6.56464Z" fill="#02331E"/>
<path d="M18.1683 7.62348H16.876C16.8042 7.62348 16.6606 7.55289 16.6606 7.41172C16.6606 7.34113 16.7324 7.19995 16.876 7.19995H18.1683C18.2401 7.19995 18.3837 7.27054 18.3837 7.41172C18.3837 7.55289 18.3119 7.62348 18.1683 7.62348Z" fill="#02331E"/>
<path d="M19.8201 8.47059C19.7481 8.47059 19.6042 8.4 19.6042 8.25883V5.92942C19.6042 5.85883 19.6762 5.71765 19.8201 5.71765C19.8921 5.71765 20.036 5.78824 20.036 5.92942V8.25883C19.964 8.4 19.8921 8.47059 19.8201 8.47059Z" fill="#02331E"/>
<path d="M21.112 8.47054C21.0402 8.47054 20.8966 8.39995 20.8966 8.25878V6.42348C20.8966 6.28231 20.8248 6.21172 20.753 6.14113C20.6094 5.99995 20.394 5.99995 20.3222 6.14113L19.8914 6.56466C19.8196 6.63525 19.6761 6.63525 19.6043 6.56466C19.5325 6.49407 19.5325 6.35289 19.6043 6.28231L20.035 5.85877C20.3222 5.64701 20.6812 5.64701 20.9684 5.85877C21.112 5.99995 21.2556 6.21172 21.2556 6.42348V8.25878C21.3274 8.39995 21.2556 8.47054 21.112 8.47054Z" fill="#02331E"/>
<path d="M22.5479 8.47054C22.4761 8.47054 22.3325 8.39995 22.3325 8.25878V6.42348C22.3325 6.35289 22.2607 6.21172 22.1889 6.14113C22.0453 5.99995 21.8299 5.99995 21.7581 6.14113L21.3274 6.56466C21.2556 6.63525 21.112 6.63525 21.0402 6.56466C20.9684 6.49407 20.9684 6.35289 21.0402 6.28231L21.471 5.85877C21.7582 5.64701 22.1171 5.64701 22.4043 5.85877C22.5479 5.99995 22.6915 6.21172 22.6915 6.42348V8.25878C22.6915 8.39995 22.6197 8.47054 22.5479 8.47054Z" fill="#02331E"/>
<path d="M24.1993 8.47059C23.6967 8.47059 23.3377 8.11765 23.3377 7.62353V6.56471C23.3377 6.14118 23.6967 5.71765 24.1993 5.71765C24.7018 5.71765 25.0608 6.07059 25.0608 6.56471C25.0608 6.6353 24.989 6.77647 24.8454 6.77647C24.7736 6.77647 24.63 6.70589 24.63 6.6353C24.63 6.35294 24.4147 6.21177 24.1993 6.21177C23.9121 6.21177 23.6967 6.42353 23.6967 6.6353V7.69412C23.6967 7.97647 23.9121 8.11765 24.1275 8.11765C24.4146 8.11765 24.63 7.90589 24.63 7.69412V7.48236C24.63 7.41177 24.7018 7.27059 24.8454 7.27059C24.9172 7.27059 25.0608 7.34118 25.0608 7.48236V7.69412C25.0608 8.11765 24.7018 8.47059 24.1993 8.47059Z" fill="#02331E"/>
<path d="M26.7122 6.42347H25.707C25.6352 6.42347 25.5634 6.35288 25.5634 6.28229C25.5634 6.2117 25.5634 6.14111 25.6352 6.07053L26.4968 5.22347C26.5686 5.15288 26.5686 5.08229 26.5686 5.0117V4.87052C26.5686 4.72935 26.425 4.58817 26.2814 4.58817C26.1378 4.58817 25.9942 4.72935 25.9942 4.87052V5.08229C25.9942 5.15288 25.9224 5.29405 25.7788 5.29405C25.707 5.29405 25.5634 5.22347 25.5634 5.08229V4.87052C25.5634 4.51758 25.8506 4.23523 26.2096 4.23523C26.5686 4.23523 26.8558 4.51758 26.8558 4.87052V5.0117C26.8558 5.15288 26.784 5.36464 26.6404 5.43523L26.1378 5.92935H26.6404C26.7122 5.92935 26.8558 5.99994 26.8558 6.14111C26.8558 6.35288 26.784 6.42347 26.7122 6.42347Z" fill="#02331E"/>
</svg>
