<svg width="62" height="64" viewBox="0 0 62 64" fill="none" xmlns="http://www.w3.org/2000/svg">
<path d="M54.4013 0.183655C52.1132 0.183655 50.2679 2.0289 50.2679 4.31699V7.12174C49.2346 6.30983 47.8322 5.79318 46.4298 5.79318C43.1084 5.79318 40.3775 8.37651 40.156 11.6979H31.4465C31.2251 8.37651 28.4941 5.79318 25.1727 5.79318C23.1061 5.79318 21.2609 6.82651 20.0799 8.37651C18.8989 6.82651 17.0537 5.79318 14.987 5.79318C13.5108 5.79318 12.1823 6.30983 11.1489 7.12174V4.31699C11.1489 2.0289 9.30371 0.183655 7.01562 0.183655C4.72753 0.183655 2.88226 2.0289 2.88226 4.31699V51.9979C1.11084 53.0312 0.00372314 54.9503 0.00372314 57.1646C0.00372314 60.486 2.73468 63.2169 6.05611 63.2169H55.9513C59.2727 63.2169 62.0037 60.486 62.0037 57.1646C62.0037 54.8027 60.6012 52.736 58.6084 51.7027V4.31699C58.5346 2.0289 56.6156 0.183655 54.4013 0.183655ZM52.7036 25.6479V12.067V4.31699C52.7036 3.35747 53.4418 2.61938 54.4013 2.61938C55.3608 2.61938 56.0989 3.35747 56.0989 4.31699V51.1122C56.0251 51.1122 55.9513 51.1122 55.8775 51.1122H52.7036V25.6479ZM46.356 8.22888C48.4965 8.22888 50.1941 10.0003 50.1941 12.067C50.1941 14.2075 48.4227 15.9051 46.356 15.9051C44.2156 15.9051 42.5179 14.2075 42.5179 12.067C42.5179 9.92651 44.2156 8.22888 46.356 8.22888ZM25.0251 8.22888C27.1656 8.22888 28.8632 10.0003 28.8632 12.067C28.8632 14.2075 27.0918 15.9051 25.0251 15.9051C22.8846 15.9051 21.187 14.2075 21.187 12.067C21.187 9.92651 22.8846 8.22888 25.0251 8.22888ZM19.9323 15.7575C21.1132 17.3074 22.9584 18.3408 25.0251 18.3408C28.1989 18.3408 30.856 15.9051 31.2989 12.8789H40.156C40.5251 15.9789 43.1822 18.3408 46.4298 18.3408C47.906 18.3408 49.2346 17.8241 50.2679 17.0122V20.6289C49.2346 19.817 47.8322 19.3003 46.4298 19.3003C43.9941 19.3003 41.9275 20.6289 40.8203 22.6217C39.787 20.6289 37.6465 19.3003 35.2108 19.3003C31.8894 19.3003 29.1585 21.8836 28.937 25.205H11.0013V17.0122C12.0346 17.8241 13.437 18.3408 14.8394 18.3408C16.9799 18.4146 18.8251 17.3813 19.9323 15.7575ZM35.2108 46.9788C38.4585 46.9788 41.1894 44.4693 41.4846 41.2955H50.1941V51.1122H10.9275V45.6503C11.9608 46.4622 13.3632 46.9788 14.7656 46.9788C18.0132 46.9788 20.7442 44.4693 21.0394 41.2955H28.8632C29.2322 44.4693 31.9632 46.9788 35.2108 46.9788ZM31.3727 40.705C31.3727 38.5646 33.1442 36.867 35.2108 36.867C37.3513 36.867 39.0489 38.6384 39.0489 40.705C39.0489 42.8455 37.3513 44.5431 35.2108 44.5431C33.0704 44.5431 31.3727 42.7717 31.3727 40.705ZM41.4846 40.0408C41.1894 36.8669 38.4585 34.3574 35.2108 34.3574C31.9632 34.3574 29.2323 36.8669 28.937 40.0408H21.1132C20.818 36.8669 18.087 34.3574 14.8394 34.3574C13.3632 34.3574 12.0346 34.8741 11.0013 35.686V26.4598H28.937C29.3061 29.5598 31.9632 31.9217 35.2108 31.9217C37.6465 31.9217 39.7132 30.5931 40.8203 28.6003C41.8537 30.5931 43.9941 31.9217 46.4298 31.9217C47.906 31.9217 49.2346 31.4051 50.2679 30.5932V40.0408H41.4846ZM31.3727 25.6479C31.3727 23.5074 33.1442 21.8098 35.2108 21.8098C37.3513 21.8098 39.0489 23.5074 39.0489 25.6479C39.0489 27.7884 37.3513 29.486 35.2108 29.486C33.0704 29.486 31.3727 27.7884 31.3727 25.6479ZM46.356 29.486C44.2156 29.486 42.5179 27.7884 42.5179 25.6479C42.5179 23.5074 44.2894 21.8098 46.356 21.8098C48.4965 21.8098 50.1941 23.5074 50.1941 25.6479C50.268 27.7884 48.4965 29.486 46.356 29.486ZM14.8394 8.22888C16.9799 8.22888 18.6775 9.92651 18.6775 12.067C18.6775 14.2075 16.9061 15.9051 14.8394 15.9051C12.6989 15.9051 11.0013 14.2075 11.0013 12.067C11.0013 9.92651 12.6989 8.22888 14.8394 8.22888ZM14.8394 36.7931C16.9799 36.7931 18.6775 38.5646 18.6775 40.6312C18.6775 42.7717 16.9061 44.4693 14.8394 44.4693C12.6989 44.4693 11.0013 42.6979 11.0013 40.6312C11.0013 38.5646 12.6989 36.7931 14.8394 36.7931ZM5.17038 4.31699C5.17038 3.35747 5.90847 2.61938 6.86799 2.61938C7.82751 2.61938 8.5656 3.35747 8.5656 4.31699V12.067V40.6312V51.0384H5.90848C5.68705 51.0384 5.39181 51.0384 5.17038 51.1122V4.31699ZM59.4203 57.1646C59.4203 59.1574 57.7965 60.7812 55.8036 60.7812H5.90848C3.91562 60.7812 2.2918 59.1574 2.2918 57.1646C2.2918 55.1717 3.91562 53.5479 5.90848 53.5479H55.8036C57.7965 53.5479 59.4203 55.1717 59.4203 57.1646Z" fill="#798EE4"/>
</svg>
