<svg width="47" height="66" viewBox="0 0 47 66" fill="none" xmlns="http://www.w3.org/2000/svg">
<path d="M24.4236 8.01428C22.8476 8.01428 21.5977 9.26422 21.5977 10.8402C21.5977 12.4162 22.8476 13.6662 24.4236 13.6662C25.9996 13.6662 27.2495 12.4162 27.2495 10.8402C27.2495 9.26422 25.9996 8.01428 24.4236 8.01428ZM24.4236 11.8728C23.8802 11.8728 23.391 11.438 23.391 10.8402C23.391 10.2968 23.8258 9.80766 24.4236 9.80766C24.9671 9.80766 25.4562 10.2424 25.4562 10.8402C25.4562 11.3837 24.9671 11.8728 24.4236 11.8728Z" fill="#798EE4"/>
<path d="M36.1621 4.97106C36.1621 2.30815 33.9883 0.134338 31.3254 0.134338C28.6625 0.134338 26.4887 2.30815 26.4887 4.97106C26.4887 7.63396 28.6625 9.80774 31.3254 9.80774C33.9883 9.80774 36.1621 7.63396 36.1621 4.97106ZM31.2711 8.01436C29.5864 8.01436 28.2278 6.65575 28.2278 4.97106C28.2278 3.28636 29.5864 1.92772 31.2711 1.92772C32.9558 1.92772 34.3144 3.28636 34.3144 4.97106C34.3687 6.65575 32.9558 8.01436 31.2711 8.01436Z" fill="#798EE4"/>
<path d="M27.793 13.2316C27.793 15.025 29.2603 16.5466 31.108 16.5466C32.9014 16.5466 34.4231 15.0793 34.4231 13.2316C34.4231 11.4382 32.9558 9.9165 31.108 9.9165C29.2603 9.9165 27.793 11.3838 27.793 13.2316ZM32.5753 13.2316C32.5753 14.0467 31.9232 14.7532 31.0537 14.7532C30.1842 14.7532 29.532 14.1011 29.532 13.2316C29.532 12.4164 30.1842 11.7099 31.0537 11.7099C31.9232 11.7099 32.5753 12.4164 32.5753 13.2316Z" fill="#798EE4"/>
<path d="M1.49002 63.9897C2.19651 65.2397 3.50079 66.0005 4.91376 66.0005H42.6292C43.8791 66.0005 44.966 65.3484 45.6182 64.2615C46.216 63.1746 46.216 61.8703 45.6182 60.8377L34.2057 41.1105C34.1514 41.0018 34.0427 40.8931 33.934 40.8388C33.934 40.6214 33.8253 40.404 33.6623 40.2953L28.3908 31.2197V23.6114C29.5864 23.1767 30.4016 22.0354 30.4016 20.6768C30.4016 18.9377 28.9886 17.5791 27.3039 17.5791H19.2065C17.4674 17.5791 16.1088 18.9921 16.1088 20.6768C16.1088 22.0354 16.9783 23.1223 18.1196 23.6114V31.2197L12.8481 40.2953C12.6851 40.4584 12.6307 40.6214 12.5764 40.8388C12.4677 40.8931 12.4134 41.0018 12.359 41.1105L1.38134 60.1313C0.78354 61.2725 0.783539 62.7398 1.49002 63.9897ZM18.0109 20.5681C18.0109 19.8616 18.6087 19.2638 19.3152 19.2638H27.4126C28.1191 19.2638 28.7169 19.8616 28.7169 20.5681C28.7169 21.2746 28.1191 21.8724 27.4126 21.8724H19.3152C18.6087 21.8724 18.0109 21.3289 18.0109 20.5681ZM19.913 31.8175C19.9673 31.6545 20.0217 31.5458 20.0217 31.3827V23.7201H26.7061V31.3827C26.7061 31.5458 26.7604 31.7088 26.8148 31.8175L31.8689 40.5671H14.8589L19.913 31.8175ZM3.06603 60.8921L13.772 42.3604L32.9558 42.4148L44.0965 61.7072C44.3682 62.1963 44.3682 62.8485 44.0965 63.3376C43.8248 63.8267 43.2813 64.1528 42.6835 64.1528H4.9681C4.20727 64.1528 3.50079 63.7723 3.06603 63.0659C2.68561 62.4137 2.68561 61.5985 3.06603 60.8921Z" fill="#798EE4"/>
</svg>
